<svg width="20" height="20" viewBox="0 0 20 20" fill="none" xmlns="http://www.w3.org/2000/svg">
<path d="M7.4995 18.334V15.0004C7.44116 14.4837 7.48283 13.9587 7.62451 13.4586C7.76618 12.9586 8.00786 12.4919 8.33288 12.0835C5.83274 12.0835 3.3326 10.4167 3.3326 7.49982C3.26466 6.46039 3.55918 5.42955 4.16598 4.58292C3.91597 3.62451 3.91597 2.62443 4.16598 1.66602C4.16598 1.66602 4.99936 1.66602 6.66612 2.91612C8.86624 2.49942 11.133 2.49942 13.3332 2.91612C14.9999 1.66602 15.8333 1.66602 15.8333 1.66602C16.0666 2.62443 16.0666 3.62451 15.8333 4.58292C16.4417 5.43298 16.7333 6.45807 16.6667 7.49982C16.6667 10.4167 14.1665 12.0835 11.6664 12.0835C12.3164 12.9087 12.6157 13.9564 12.4998 15.0004V18.334M7.4995 15.0004C3.74096 16.6672 3.33277 13.3336 1.66602 13.3336" stroke="white" stroke-width="2" stroke-linecap="round"/>
</svg>
