<svg width="20" height="20" viewBox="0 0 20 20" fill="none" xmlns="http://www.w3.org/2000/svg">
<path d="M2.88831 11.5393C3.02186 11.6231 3.17645 11.6674 3.33413 11.6668H9.16681C9.30159 11.6664 9.43446 11.6987 9.55403 11.7609C9.67361 11.8231 9.77631 11.9134 9.85332 12.024C9.93034 12.1346 9.97937 12.2623 9.99622 12.396C10.0131 12.5298 9.99723 12.6656 9.95005 12.7919L8.35023 17.8089C8.32517 17.9 8.33183 17.9969 8.36912 18.0838C8.4064 18.1706 8.47211 18.2422 8.55543 18.2868C8.63876 18.3314 8.73477 18.3463 8.82769 18.3291C8.92062 18.3119 9.00494 18.2637 9.06682 18.1922L17.3159 9.69171C17.4152 9.56924 17.4778 9.42109 17.4963 9.26447C17.5148 9.10785 17.4885 8.9492 17.4204 8.80694C17.3524 8.66469 17.2453 8.54466 17.1118 8.46082C16.9782 8.37698 16.8236 8.33276 16.666 8.3333H10.8333C10.6985 8.33373 10.5656 8.30147 10.4461 8.23926C10.3265 8.17705 10.2238 8.08676 10.1468 7.97613C10.0698 7.8655 10.0207 7.73784 10.0039 7.60409C9.98702 7.47035 10.0029 7.33451 10.05 7.20823L11.6499 2.19126C11.6749 2.10013 11.6683 2.00319 11.631 1.91634C11.5937 1.82949 11.528 1.7579 11.4447 1.71332C11.3613 1.66874 11.2653 1.65382 11.1724 1.67101C11.0795 1.6882 10.9952 1.73647 10.9333 1.80791L2.6842 10.3084C2.58486 10.4309 2.52231 10.579 2.5038 10.7357C2.4853 10.8923 2.51161 11.0509 2.57967 11.1932C2.64773 11.3354 2.75476 11.4555 2.88831 11.5393Z" stroke="white" stroke-width="2" stroke-linecap="round"/>
</svg>
